<svg width="99" height="90" viewBox="0 0 99 90" fill="none" xmlns="http://www.w3.org/2000/svg">
<path d="M60.2305 43.3151L50.5043 51.9802L9.43175 88.5661C8.35347 89.5289 6.97023 90.0103 5.58699 90.0103C4.07304 90.0103 2.5591 89.4367 1.45904 88.2998C-0.708403 86.0669 -0.425219 82.5743 2.06897 80.6692L50.5043 43.8272L55.8412 39.7712L60.2305 43.3151Z" fill="url(#paint0_linear_1_156)"/>
<path d="M50.0795 52.4206L40.5058 60.9423L39.6235 52.185L44.8624 48.2007L50.0795 52.4206Z" fill="#3A81D6" fill-opacity="0.8"/>
<path d="M98.5475 29.9078C98.5475 46.4288 84.3011 59.8259 66.7438 59.8259C55.6778 59.8259 45.9298 54.5101 40.2334 46.4391C36.8897 41.7071 34.9401 36.0225 34.9401 29.9078C34.9401 13.3868 49.1864 0 66.7438 0C74.6729 0 81.9159 2.72448 87.4815 7.23114C94.2561 12.7211 98.5475 20.8433 98.5475 29.9078Z" fill="url(#paint1_linear_1_156)"/>
<path d="M66.7438 53.2093C80.4286 53.2093 91.5223 42.7768 91.5223 29.9078C91.5223 17.0387 80.4286 6.60632 66.7438 6.60632C53.059 6.60632 41.9652 17.0387 41.9652 29.9078C41.9652 42.7768 53.059 53.2093 66.7438 53.2093Z" fill="white"/>
<path opacity="0.06" d="M98.5474 29.9078C98.5474 46.4288 84.3011 59.8259 66.7437 59.8259C55.6778 59.8259 45.9297 54.5101 40.2334 46.4391C76.0997 43.6941 85.5537 15.1178 87.4924 7.23114C94.2561 12.7211 98.5474 20.8433 98.5474 29.9078Z" fill="#1A6FB5" fill-opacity="0.5"/>
<defs>
<linearGradient id="paint0_linear_1_156" x1="6.07961" y1="84.3265" x2="54.5569" y2="37.4626" gradientUnits="userSpaceOnUse">
<stop stop-color="#67C3F3"/>
<stop offset="1" stop-color="#5A98F2"/>
</linearGradient>
<linearGradient id="paint1_linear_1_156" x1="53.5896" y1="2.11336" x2="75.3045" y2="54.0245" gradientUnits="userSpaceOnUse">
<stop stop-color="#6888C8"/>
<stop offset="1" stop-color="#5A98F2"/>
</linearGradient>
</defs>
</svg>
